<svg id="visual" viewBox="0 0 900 600" width="900" height="600" xmlns="http://www.w3.org/2000/svg" xmlns:xlink="http://www.w3.org/1999/xlink" version="1.1"><path d="M525 600L486 600L486 514L485 514L485 429L388 429L388 343L427 343L427 257L416 257L416 171L566 171L566 86L546 86L546 0L900 0L900 86L900 86L900 171L900 171L900 257L900 257L900 343L900 343L900 429L900 429L900 514L900 514L900 600L900 600Z" fill="#f5f5f5"></path><path d="M639 600L613 600L613 514L568 514L568 429L644 429L644 343L548 343L548 257L662 257L662 171L624 171L624 86L609 86L609 0L900 0L900 86L900 86L900 171L900 171L900 257L900 257L900 343L900 343L900 429L900 429L900 514L900 514L900 600L900 600Z" fill="#f5f5f5"></path><path d="M720 600L793 600L793 514L815 514L815 429L780 429L780 343L768 343L768 257L804 257L804 171L693 171L693 86L692 86L692 0L900 0L900 86L900 86L900 171L900 171L900 257L900 257L900 343L900 343L900 429L900 429L900 514L900 514L900 600L900 600Z" fill="#8b85c1"></path></svg>