<?xml version="1.0" encoding="UTF-8"?>
<svg version="1.1" viewBox="0 0 1704 2048" width="134" height="161" xmlns="http://www.w3.org/2000/svg">
<path transform="translate(860)" d="m0 0 2 2-2 2 8 7 9 7 10 8 13 11 8 7 10 9 8 8 8 7 15 14 11 12 7 8 14 17 11 15 11 18 8 15 11 25 7 21 4 22v23l-4 20-5 12-14 24-10 13-7 7-16 12-10 9-12 14-10 18-6 16-4 19v23l5 23 5 12 6 11 8 11 11 12 13 11 19 10 15 6 15 4 22 3h23l21-4 21-8 20-10 17-10 13-10 7-6 7-8 11-13 9-15 6-13 5-18 3-14v-26l-4-17-6-15-6-11-9-12v-7l4-20 6-15 10-18 11-15 9-11 17-17 8-7 11-9 13-10 18-13 22-14 22-13 21-12 19-10 10-5 7-1 1 1v7l-14 63-11 48-14 58-9 38-19 74-15 60-9 38-8 33-4 10-9 4-21 7-12 6-13 11-8 9-6 10-5 13-1 5v17l2 11 6 12 6 8 11 10 10 4 17 5 3 2v9l-4 49-1 18v17l3 9 11 10 11 9 16 15 24 24 7 8 12 14 10 13 14 19 12 19 9 15 17 29 17 32 11 24 16 40 10 27 10 28 14 47 8 32 6-2 11-6 16-8 21-8 23-6 11-2h13l16 3 14 5 13 7 10 8 8 9 9 14 12 25 6 20 8 40 2 9v93l-10 39-6 18-10 20-9 14-9 12-9 11-14 15-11 9-17 12-16 9-28 11-23 7-30 7-34 5-29 4-6 3-8 7-11 9-14 12-13 12-5 5h-2l-1 3h-2l-2 4-7 7-9 11-10 13-13 19-12 17-11 18-10 18-8 16-12 25-13 33-13 40-1 2h-2l-4-11-7-31-11-33-14-28-15-24-10-13-8-10-9-10-7-8-9-10-12-12-13-10-8-6-2-4 7-2 41-5 26-5 18-6 26-12 32-16 17-11 14-11 13-11 15-14 8-7 7-8 8-10 10-14 9-14 9-15 14-32 8-24 6-24 4-23 2-31-1-23-5-35-5-24-11-35-13-28-11-20-12-18-11-14-12-14-13-13-8-7-11-9-19-14-20-12-16-9-23-10-29-9-27-6-20-3-27-1-37 2-23 3-23 5-21 7-29 13-24 13-17 11-14 11-15 13-17 16-5 5-9 10-10 13-10 15-12 21-8 17-6 14-4-1-7-11-8-16-9-17-14-22-11-14-11-12-21-21-11-9-14-11-18-11-22-12-29-12-34-11-21-5-31-3-19-1h-18l-21 2-34 7-26 8-25 10-23 12-21 14-16 12-13 11-10 9-7 7-7 8-8 9-8 10-14 21-12 21-8 17-5 11-9 27-6 24-4 27v53l3 26 5 25 7 24 8 21 10 22 10 17 13 19 14 19 24 24 11 9 13 11 17 12 24 13 34 17 19 7 18 4 36 5 23 2 6 2-4 5-13 9-10 9-8 7-7 8-9 10-9 11-10 11-9 12-10 15-9 16-8 16-7 16-8 25-10 39h-2l-5-14-8-24-11-27-12-27-15-30-13-22-26-39-10-13-11-13-7-8-11-12-8-7-15-14-10-8-12-10-8-4-7-2-27-3-26-3-28-6-22-6-25-10-16-8-15-9-17-14-24-24-11-14-10-16-8-16-6-15-8-30-3-14-3-24v-63l7-40 7-30 7-20 8-16 12-17 8-8 11-7 12-6 18-5 7-1h18l25 6 21 7 21 11 14 9h2l11-39 9-31 16-46 15-38 11-25 13-28 12-23 11-20 13-20 12-17 10-14 9-12 10-13 11-14 11-13 9-9 8-7 11-11 8-7 13-11 9-7 11-9 4-5v-31l-3-44-1-4v-7l3-2 15-4 10-4 9-6 7-7 7-11 3-10 1-5v-13l-4-16-6-12-10-13-10-9-15-8-14-4-13-2-4-5-5-16-16-64-16-63-18-69-21-81-12-50-13-60-4-16 1-5 9 3 34 16 19 10 21 12 11 7 13 9 19 14 13 11 11 9 16 15 9 10 12 16 9 15 7 15 7 22v8l-5 8-9 11-5 10-5 19-2 11v14l3 18 7 21 8 16 9 13 8 10 19 19 15 11 14 8 14 6 16 5 24 5 19 2h26l27-10 20-10 11-8 7-6h2v-2l14-14 10-15 6-16 4-18 1-7v-21l-3-14-8-22-8-15-7-9-9-10-12-10-13-10-10-10-12-17-11-23-4-13-2-20 1-16 5-25 8-24 13-26 10-16 11-16 16-21 11-13 9-10 7-8 11-12 17-17 8-7 16-15 10-8 11-9 9-7zm-5 577-14 3-15 6-9 7-10 10-8 14-4 14v19l5 16 7 12 11 11 14 9 14 5 4 1h16l16-5 14-7 10-8 7-7 6-10 4-11 1-5v-22l-4-12-7-13-9-10-8-7-14-7-13-3z" fill="#FDFDFD"/>
<path transform="translate(1097,1232)" d="m0 0 5 1 3 7 2 17 6 22 9 21 6 10 7 9 12 13 13 12 16 11 25 12 13 4 28 4 17-1 19-4h5l2 6-1 12-5 21-10 26-11 20-10 13-7 8-11 9-16 10-19 9-16 6-20 4-8 1h-28l-17-3-20-7-19-9-13-9-11-9-13-13-14-21-11-24-5-19-3-19v-23l4-20 5-17 6-14 8-14 9-12 11-12 14-13 16-11 17-9z" fill="#FBD7CA"/>
<path transform="translate(533,1233)" d="m0 0 6 2 3 3 2 11 5 28 6 15 10 19 8 10 21 21 14 11 21 11 13 5 13 3 19 3h19l22-3 8-2-1 12-6 26-9 25-11 20-10 14-14 14-14 10-21 11-21 8-20 4-6 1h-31l-19-4-22-8-14-7-16-11-12-11-7-7-10-14-14-27-7-22-4-24v-16l3-19 6-21 5-14 13-22 7-7 7-8 5-5h2v-2l8-7 12-10 17-10 10-5z" fill="#FBD7CA"/>
<path transform="translate(646,1907)" d="m0 0 9 1 13 4 25 12 23 13 22 12 28 13 24 8 21 4 16 2 16 1h22l23-2 24-4 20-6 15-6 27-13 16-8 25-14 19-10 15-5h13l5 5v26l-2 16-3 14-6 12-7 6-16 8-29 12-28 10-28 7-28 5-36 4-19 1h-24l-29-2-39-5-33-7-30-10-26-11-25-12-10-7-4-12-5-27v-21l4-11z" fill="#FEFEFE"/>
<path transform="translate(688,1692)" d="m0 0 11 1 29 5 17 5 14 7 14 10 14 11 9 10 8 13 9 19v5l-3 1h-8l-14-3-18-6-18-8-16-8-12-8-13-12-8-9-14-20-3-6v-5z" fill="#FDFDFD"/>
<path transform="translate(1e3 1697)" d="m0 0h9l5 3-3 7-11 13-9 10-8 8-15 10-26 14-19 9-14 5-13 2h-7l-2-2 1-6 12-22 7-9 9-10 17-13 21-11 16-4z" fill="#FDFDFD"/>
</svg>
