<svg id="visual" viewBox="0 0 900 600" width="900" height="600" xmlns="http://www.w3.org/2000/svg" xmlns:xlink="http://www.w3.org/1999/xlink" version="1.1"><g stroke-width="1" stroke-linejoin="bevel"><path d="M498 299L600 298L500 201Z" fill="#7a6f9b" stroke="#7a6f9b"></path><path d="M600 298L599 198L500 201Z" fill="#e8e7ec" stroke="#e8e7ec"></path><path d="M498 299L501 399L600 298Z" fill="#f5f5f5" stroke="#f5f5f5"></path><path d="M600 400L698 298L600 298Z" fill="#867ca4" stroke="#867ca4"></path><path d="M600 298L699 199L599 198Z" fill="#f5f5f5" stroke="#f5f5f5"></path><path d="M500 201L399 298L498 299Z" fill="#9e95b5" stroke="#9e95b5"></path><path d="M498 299L400 399L501 399Z" fill="#c2bdd0" stroke="#c2bdd0"></path><path d="M501 399L600 400L600 298Z" fill="#dcd9e2" stroke="#dcd9e2"></path><path d="M500 99L400 198L500 201Z" fill="#f5f5f5" stroke="#f5f5f5"></path><path d="M500 201L400 198L399 298Z" fill="#9e95b5" stroke="#9e95b5"></path><path d="M698 298L699 199L600 298Z" fill="#9288ac" stroke="#9288ac"></path><path d="M600 99L500 99L599 198Z" fill="#cfcbd9" stroke="#cfcbd9"></path><path d="M599 198L500 99L500 201Z" fill="#e8e7ec" stroke="#e8e7ec"></path><path d="M698 100L600 99L599 198Z" fill="#7a6f9b" stroke="#7a6f9b"></path><path d="M399 298L400 399L498 299Z" fill="#9e95b5" stroke="#9e95b5"></path><path d="M501 399L601 499L600 400Z" fill="#9e95b5" stroke="#9e95b5"></path><path d="M699 199L698 100L599 198Z" fill="#867ca4" stroke="#867ca4"></path><path d="M600 400L701 400L698 298Z" fill="#9e95b5" stroke="#9e95b5"></path><path d="M698 298L801 201L699 199Z" fill="#7a6f9b" stroke="#7a6f9b"></path><path d="M500 99L398 100L400 198Z" fill="#867ca4" stroke="#867ca4"></path><path d="M400 198L301 198L399 298Z" fill="#9288ac" stroke="#9288ac"></path><path d="M398 100L301 198L400 198Z" fill="#dcd9e2" stroke="#dcd9e2"></path><path d="M399 298L299 300L400 399Z" fill="#9e95b5" stroke="#9e95b5"></path><path d="M498 501L601 499L501 399Z" fill="#867ca4" stroke="#867ca4"></path><path d="M600 400L699 498L701 400Z" fill="#9e95b5" stroke="#9e95b5"></path><path d="M301 198L299 300L399 298Z" fill="#cfcbd9" stroke="#cfcbd9"></path><path d="M400 501L498 501L400 399Z" fill="#f5f5f5" stroke="#f5f5f5"></path><path d="M400 399L498 501L501 399Z" fill="#e8e7ec" stroke="#e8e7ec"></path><path d="M700 0L599 0L600 99Z" fill="#e8e7ec" stroke="#e8e7ec"></path><path d="M600 99L599 0L500 99Z" fill="#e8e7ec" stroke="#e8e7ec"></path><path d="M500 99L401 0L398 100Z" fill="#aaa3be" stroke="#aaa3be"></path><path d="M599 0L498 0L500 99Z" fill="#c2bdd0" stroke="#c2bdd0"></path><path d="M701 400L800 301L698 298Z" fill="#e8e7ec" stroke="#e8e7ec"></path><path d="M699 199L799 101L698 100Z" fill="#9288ac" stroke="#9288ac"></path><path d="M800 301L801 201L698 298Z" fill="#e8e7ec" stroke="#e8e7ec"></path><path d="M698 100L700 0L600 99Z" fill="#c2bdd0" stroke="#c2bdd0"></path><path d="M601 499L699 498L600 400Z" fill="#7a6f9b" stroke="#7a6f9b"></path><path d="M701 400L799 400L800 301Z" fill="#f5f5f5" stroke="#f5f5f5"></path><path d="M700 600L699 498L601 499Z" fill="#f5f5f5" stroke="#f5f5f5"></path><path d="M299 300L299 398L400 399Z" fill="#f5f5f5" stroke="#f5f5f5"></path><path d="M301 499L400 501L400 399Z" fill="#f5f5f5" stroke="#f5f5f5"></path><path d="M498 0L401 0L500 99Z" fill="#cfcbd9" stroke="#cfcbd9"></path><path d="M398 100L299 98L301 198Z" fill="#cfcbd9" stroke="#cfcbd9"></path><path d="M799 500L799 400L701 400Z" fill="#f5f5f5" stroke="#f5f5f5"></path><path d="M801 201L799 101L699 199Z" fill="#9288ac" stroke="#9288ac"></path><path d="M300 0L299 98L398 100Z" fill="#dcd9e2" stroke="#dcd9e2"></path><path d="M301 198L200 201L299 300Z" fill="#e8e7ec" stroke="#e8e7ec"></path><path d="M799 101L700 0L698 100Z" fill="#7a6f9b" stroke="#7a6f9b"></path><path d="M299 398L301 499L400 399Z" fill="#e8e7ec" stroke="#e8e7ec"></path><path d="M299 98L200 201L301 198Z" fill="#9e95b5" stroke="#9e95b5"></path><path d="M299 300L199 398L299 398Z" fill="#9288ac" stroke="#9288ac"></path><path d="M299 398L201 500L301 499Z" fill="#c2bdd0" stroke="#c2bdd0"></path><path d="M498 600L498 501L400 501Z" fill="#aaa3be" stroke="#aaa3be"></path><path d="M498 600L598 600L498 501Z" fill="#aaa3be" stroke="#aaa3be"></path><path d="M498 501L598 600L601 499Z" fill="#dcd9e2" stroke="#dcd9e2"></path><path d="M699 498L799 500L701 400Z" fill="#f5f5f5" stroke="#f5f5f5"></path><path d="M398 600L498 600L400 501Z" fill="#867ca4" stroke="#867ca4"></path><path d="M200 201L199 298L299 300Z" fill="#b6b0c7" stroke="#b6b0c7"></path><path d="M700 600L799 500L699 498Z" fill="#cfcbd9" stroke="#cfcbd9"></path><path d="M900 398L900 300L800 301Z" fill="#9e95b5" stroke="#9e95b5"></path><path d="M800 301L900 300L801 201Z" fill="#9288ac" stroke="#9288ac"></path><path d="M401 0L300 0L398 100Z" fill="#cfcbd9" stroke="#cfcbd9"></path><path d="M299 98L199 98L200 201Z" fill="#aaa3be" stroke="#aaa3be"></path><path d="M900 398L800 301L799 400Z" fill="#aaa3be" stroke="#aaa3be"></path><path d="M801 201L900 198L799 101Z" fill="#cfcbd9" stroke="#cfcbd9"></path><path d="M900 300L900 198L801 201Z" fill="#f5f5f5" stroke="#f5f5f5"></path><path d="M799 101L801 0L700 0Z" fill="#cfcbd9" stroke="#cfcbd9"></path><path d="M900 101L801 0L799 101Z" fill="#f5f5f5" stroke="#f5f5f5"></path><path d="M199 298L199 398L299 300Z" fill="#aaa3be" stroke="#aaa3be"></path><path d="M300 600L398 600L301 499Z" fill="#9e95b5" stroke="#9e95b5"></path><path d="M301 499L398 600L400 501Z" fill="#9288ac" stroke="#9288ac"></path><path d="M598 600L700 600L601 499Z" fill="#aaa3be" stroke="#aaa3be"></path><path d="M900 498L799 400L799 500Z" fill="#9288ac" stroke="#9288ac"></path><path d="M900 498L900 398L799 400Z" fill="#b6b0c7" stroke="#b6b0c7"></path><path d="M201 0L199 98L299 98Z" fill="#c2bdd0" stroke="#c2bdd0"></path><path d="M200 201L99 201L199 298Z" fill="#f5f5f5" stroke="#f5f5f5"></path><path d="M900 198L900 101L799 101Z" fill="#aaa3be" stroke="#aaa3be"></path><path d="M199 398L201 500L299 398Z" fill="#cfcbd9" stroke="#cfcbd9"></path><path d="M201 500L300 600L301 499Z" fill="#cfcbd9" stroke="#cfcbd9"></path><path d="M300 0L201 0L299 98Z" fill="#b6b0c7" stroke="#b6b0c7"></path><path d="M801 600L900 498L799 500Z" fill="#f5f5f5" stroke="#f5f5f5"></path><path d="M700 600L801 600L799 500Z" fill="#c2bdd0" stroke="#c2bdd0"></path><path d="M900 101L900 0L801 0Z" fill="#867ca4" stroke="#867ca4"></path><path d="M99 101L200 201L199 98Z" fill="#867ca4" stroke="#867ca4"></path><path d="M99 101L99 201L200 201Z" fill="#7a6f9b" stroke="#7a6f9b"></path><path d="M199 298L98 301L199 398Z" fill="#dcd9e2" stroke="#dcd9e2"></path><path d="M199 398L100 499L201 500Z" fill="#9288ac" stroke="#9288ac"></path><path d="M99 201L98 301L199 298Z" fill="#867ca4" stroke="#867ca4"></path><path d="M98 301L99 399L199 398Z" fill="#9e95b5" stroke="#9e95b5"></path><path d="M201 500L199 600L300 600Z" fill="#cfcbd9" stroke="#cfcbd9"></path><path d="M98 0L99 101L199 98Z" fill="#9288ac" stroke="#9288ac"></path><path d="M99 201L0 298L98 301Z" fill="#867ca4" stroke="#867ca4"></path><path d="M100 499L199 600L201 500Z" fill="#867ca4" stroke="#867ca4"></path><path d="M801 600L900 600L900 498Z" fill="#dcd9e2" stroke="#dcd9e2"></path><path d="M0 399L100 499L99 399Z" fill="#b6b0c7" stroke="#b6b0c7"></path><path d="M99 399L100 499L199 398Z" fill="#aaa3be" stroke="#aaa3be"></path><path d="M201 0L98 0L199 98Z" fill="#e8e7ec" stroke="#e8e7ec"></path><path d="M0 201L0 298L99 201Z" fill="#b6b0c7" stroke="#b6b0c7"></path><path d="M0 201L99 201L99 101Z" fill="#cfcbd9" stroke="#cfcbd9"></path><path d="M98 301L0 399L99 399Z" fill="#c2bdd0" stroke="#c2bdd0"></path><path d="M0 99L0 201L99 101Z" fill="#9e95b5" stroke="#9e95b5"></path><path d="M0 500L101 600L100 499Z" fill="#cfcbd9" stroke="#cfcbd9"></path><path d="M100 499L101 600L199 600Z" fill="#aaa3be" stroke="#aaa3be"></path><path d="M0 298L0 399L98 301Z" fill="#9288ac" stroke="#9288ac"></path><path d="M98 0L0 99L99 101Z" fill="#f5f5f5" stroke="#f5f5f5"></path><path d="M0 399L0 500L100 499Z" fill="#867ca4" stroke="#867ca4"></path><path d="M98 0L0 0L0 99Z" fill="#867ca4" stroke="#867ca4"></path><path d="M0 500L0 600L101 600Z" fill="#867ca4" stroke="#867ca4"></path></g></svg>